<svg width="266" height="60" viewBox="0 0 266 60" fill="none" xmlns="http://www.w3.org/2000/svg">
<g clip-path="url(#clip0_207_36)">
<path d="M52.5904 15L39.6001 7.5L26.6097 0L0.628906 15V45L26.6097 60L52.5905 45V30.0001L39.6001 22.5L52.5904 15ZM39.6001 37.5L26.6097 45L13.6193 37.5V22.5L26.6097 15L39.6001 22.5L26.6097 30L39.6001 37.5Z" fill="#ED1E79"/>
<path d="M83.3675 16.3477H88.4962V36.0797C88.4962 41.4433 84.8552 45.4367 78.5911 45.4367C72.2487 45.4367 69.469 41.2084 69.1558 37.9589H74.7152C74.9501 39.1334 75.8897 40.6603 78.6694 40.6603C81.4883 40.6603 82.9368 39.0943 82.9368 36.6669V33.8089C81.8798 35.2184 79.8439 36.4712 76.9468 36.4712C71.2308 36.4712 67.5898 31.8906 67.5898 26.1746C67.5898 20.4586 71.2308 15.8779 76.9468 15.8779C79.8439 15.8779 82.0755 16.9741 83.3675 18.8534V16.3477ZM78.1213 20.7718C75.1459 20.7718 73.1492 22.9642 73.1492 26.1746C73.1492 29.3849 75.1459 31.5774 78.1213 31.5774C81.0968 31.5774 83.0934 29.3849 83.0934 26.1746C83.0934 22.9642 81.0968 20.7718 78.1213 20.7718Z" fill="white"/>
<path d="M103.628 21.3985C103.266 21.3289 102.899 21.2896 102.531 21.2811C99.282 21.2811 97.5985 22.8863 97.5985 26.6447V36.8631H92.0391V16.3481H97.1679V19.0103C97.9117 17.7967 99.4778 16.1523 102.962 16.1523C103.158 16.1523 103.628 16.1915 103.628 16.1915V21.3985Z" fill="white"/>
<path d="M105.154 31.0292C105.154 27.4665 107.621 25.3524 113.102 24.4911L118.583 23.6689V23.4732C118.583 21.4765 117.33 20.4585 114.903 20.4585C112.319 20.4585 111.301 21.5548 111.105 22.9642H105.624C105.937 19.4015 108.365 15.8779 114.864 15.8779C120.893 15.8779 123.868 18.7359 123.868 23.5123V33.1825C123.868 34.5136 124.103 36.0405 124.456 36.8627H119.092C119.053 36.8627 118.857 35.9231 118.857 34.5919C117.565 36.432 115.49 37.3325 112.358 37.3325C107.621 37.3325 105.154 34.7094 105.154 31.0292ZM113.65 28.4453C111.262 28.8759 110.518 29.7373 110.518 30.8726C110.518 32.2821 111.379 33.0259 113.611 33.0259C116.86 33.0259 118.583 31.1467 118.583 28.4453V27.6231L113.65 28.4453Z" fill="white"/>
<path d="M132.714 45.006H127.154V16.3477H132.283V18.8534C133.575 16.9741 135.885 15.8779 138.782 15.8779C144.733 15.8779 148.217 20.6543 148.217 26.6052C148.217 32.5561 144.733 37.3325 138.782 37.3325C135.885 37.3325 133.771 36.0797 132.714 34.6703V45.006ZM137.608 32.4387C140.7 32.4387 142.658 29.933 142.658 26.6052C142.658 23.2774 140.7 20.7718 137.608 20.7718C134.515 20.7718 132.557 23.2774 132.557 26.6052C132.557 29.933 134.515 32.4387 137.608 32.4387Z" fill="white"/>
<path d="M156.177 18.2273C157.234 16.8179 159.191 15.8782 161.853 15.8782C166.786 15.8782 169.41 19.1669 169.41 24.0607V36.863H163.85V24.6872C163.85 22.299 162.832 20.6546 160.366 20.6546C157.664 20.6546 156.177 22.3381 156.177 25.157V36.863H150.617V7.5H156.177V18.2273Z" fill="white"/>
<path d="M181.291 37.3325C175.34 37.3325 171.855 32.5561 171.855 26.6052C171.855 20.6543 175.34 15.8779 181.291 15.8779C184.188 15.8779 186.498 16.9741 187.79 18.8534V16.3477H192.919V45.006H187.359V34.6703C186.302 36.0797 184.188 37.3325 181.291 37.3325ZM182.465 20.7718C179.372 20.7718 177.415 23.2774 177.415 26.6052C177.415 29.933 179.372 32.4387 182.465 32.4387C185.558 32.4387 187.516 29.933 187.516 26.6052C187.516 23.2774 185.558 20.7718 182.465 20.7718Z" fill="white"/>
<path d="M196.178 36.863V7.5H201.737V36.863H196.178Z" fill="white"/>
<path d="M205.535 35.0623C205.535 33.8486 206.436 32.9482 207.688 32.9482C208.902 32.9482 209.842 33.8486 209.842 35.0623C209.842 36.3151 208.902 37.1764 207.688 37.1764C206.436 37.1764 205.535 36.3151 205.535 35.0623Z" fill="white"/>
<path d="M223.669 20.4591H223.63L218.188 36.8632H215.291L208.4 16.9355H211.376L216.739 33.5746L222.221 16.9355H225.118L230.521 33.5746L235.962 16.9355H238.899L231.93 36.8632H229.033L223.669 20.4591Z" fill="white"/>
<path d="M251.734 36.7449C251.734 36.7449 251.029 36.9407 249.62 36.9407C246.253 36.9407 244.452 35.1006 244.452 31.4987V19.2837H240.654V16.9347H244.452V11.2578H247.232V16.9347H251.812V19.2837H247.232V31.303C247.232 33.4171 248.054 34.435 249.972 34.435C250.564 34.4243 251.154 34.3588 251.734 34.2393V36.7449Z" fill="white"/>
<path d="M258.091 13.6472C258.091 9.45804 260.518 7.50051 264.003 7.50051C264.447 7.49596 264.892 7.52212 265.334 7.57881V10.1236C264.971 10.0651 264.604 10.0389 264.237 10.0453C262.084 10.0453 260.87 10.9849 260.87 13.5297V16.9358H265.373V19.2849H260.87V36.8635H258.091V19.2849H254.215V16.9358H258.091V13.6472Z" fill="white"/>
</g>
<defs>
<clipPath id="clip0_207_36">
<rect width="266" height="60" fill="white"/>
</clipPath>
</defs>
</svg>
