<svg width="265" height="60" viewBox="0 0 265 60" fill="none" xmlns="http://www.w3.org/2000/svg">
<path d="M51.9615 15L38.9711 7.5L25.9808 0L0 15V45L25.9808 60L51.9615 45V30.0001L38.9711 22.5L51.9615 15ZM38.9711 37.5L25.9808 45L12.9904 37.5V22.5L25.9808 15L38.9711 22.5L25.9808 30L38.9711 37.5Z" fill="white"/>
<path d="M82.7387 16.3477H87.8674V36.0797C87.8674 41.4433 84.2264 45.4367 77.9623 45.4367C71.6199 45.4367 68.8402 41.2084 68.527 37.9589H74.0864C74.3213 39.1334 75.2609 40.6603 78.0406 40.6603C80.8594 40.6603 82.308 39.0943 82.308 36.6669V33.8089C81.2509 35.2184 79.2151 36.4712 76.318 36.4712C70.602 36.4712 66.9609 31.8906 66.9609 26.1746C66.9609 20.4586 70.602 15.8779 76.318 15.8779C79.2151 15.8779 81.4467 16.9741 82.7387 18.8534V16.3477ZM77.4925 20.7718C74.517 20.7718 72.5203 22.9642 72.5203 26.1746C72.5203 29.3849 74.517 31.5774 77.4925 31.5774C80.4679 31.5774 82.4646 29.3849 82.4646 26.1746C82.4646 22.9642 80.4679 20.7718 77.4925 20.7718Z" fill="white"/>
<path d="M103.001 21.3985C102.639 21.3289 102.273 21.2896 101.904 21.2811C98.655 21.2811 96.9715 22.8863 96.9715 26.6447V36.8631H91.4121V16.3481H96.5409V19.0103C97.2847 17.7967 98.8507 16.1523 102.335 16.1523C102.531 16.1523 103.001 16.1915 103.001 16.1915V21.3985Z" fill="white"/>
<path d="M104.527 31.0292C104.527 27.4665 106.994 25.3524 112.475 24.4911L117.956 23.6689V23.4732C117.956 21.4765 116.703 20.4586 114.276 20.4586C111.692 20.4586 110.674 21.5548 110.478 22.9642H104.997C105.31 19.4015 107.738 15.8779 114.237 15.8779C120.266 15.8779 123.241 18.7359 123.241 23.5123V33.1825C123.241 34.5137 123.476 36.0405 123.829 36.8627H118.465C118.426 36.8627 118.23 35.9231 118.23 34.592C116.938 36.432 114.863 37.3325 111.731 37.3325C106.994 37.3325 104.527 34.7094 104.527 31.0292ZM113.023 28.4453C110.635 28.876 109.891 29.7373 109.891 30.8726C109.891 32.2821 110.752 33.0259 112.984 33.0259C116.233 33.0259 117.956 31.1467 117.956 28.4453V27.6231L113.023 28.4453Z" fill="white"/>
<path d="M132.087 45.006H126.527V16.3477H131.656V18.8534C132.948 16.9741 135.258 15.8779 138.155 15.8779C144.106 15.8779 147.59 20.6543 147.59 26.6052C147.59 32.5561 144.106 37.3325 138.155 37.3325C135.258 37.3325 133.144 36.0797 132.087 34.6703V45.006ZM136.981 32.4387C140.073 32.4387 142.031 29.933 142.031 26.6052C142.031 23.2774 140.073 20.7718 136.981 20.7718C133.888 20.7718 131.93 23.2774 131.93 26.6052C131.93 29.933 133.888 32.4387 136.981 32.4387Z" fill="white"/>
<path d="M155.55 18.2273C156.607 16.8179 158.564 15.8782 161.226 15.8782C166.159 15.8782 168.783 19.1669 168.783 24.0607V36.863H163.223V24.6872C163.223 22.299 162.205 20.6546 159.739 20.6546C157.037 20.6546 155.55 22.3381 155.55 25.157V36.863H149.99V7.5H155.55L155.55 18.2273Z" fill="white"/>
<path d="M180.664 37.3325C174.713 37.3325 171.229 32.5561 171.229 26.6052C171.229 20.6543 174.713 15.8779 180.664 15.8779C183.561 15.8779 185.871 16.9741 187.163 18.8534V16.3477H192.292V45.006H186.732V34.6703C185.675 36.0797 183.561 37.3325 180.664 37.3325ZM181.838 20.7718C178.745 20.7718 176.788 23.2774 176.788 26.6052C176.788 29.933 178.745 32.4387 181.838 32.4387C184.931 32.4387 186.889 29.933 186.889 26.6052C186.889 23.2774 184.931 20.7718 181.838 20.7718Z" fill="white"/>
<path d="M195.549 36.863V7.5H201.108V36.863H195.549Z" fill="white"/>
<path d="M204.908 35.0624C204.908 33.8487 205.809 32.9482 207.061 32.9482C208.275 32.9482 209.215 33.8487 209.215 35.0624C209.215 36.3152 208.275 37.1765 207.061 37.1765C205.809 37.1765 204.908 36.3152 204.908 35.0624Z" fill="white"/>
<path d="M223.042 20.4591H223.003L217.561 36.8632H214.664L207.773 16.9355H210.749L216.113 33.5746L221.594 16.9355H224.491L229.894 33.5746L235.336 16.9355H238.272L231.303 36.8632H228.406L223.042 20.4591Z" fill="white"/>
<path d="M251.105 36.7459C251.105 36.7459 250.4 36.9416 248.991 36.9416C245.624 36.9416 243.823 35.1016 243.823 31.4997V19.2847H240.025V16.9356H243.823V11.2588H246.603V16.9356H251.183V19.2847H246.603V31.3039C246.603 33.4181 247.425 34.436 249.343 34.436C249.935 34.4253 250.525 34.3597 251.105 34.2402V36.7459Z" fill="white"/>
<path d="M257.462 13.6462C257.462 9.45706 259.889 7.49953 263.374 7.49953C263.819 7.49498 264.263 7.52114 264.705 7.57783V10.1226C264.342 10.0641 263.976 10.0379 263.609 10.0443C261.455 10.0443 260.242 10.9839 260.242 13.5287V16.9348H264.744V19.2839H260.242V36.8625H257.462V19.2839H253.586V16.9348H257.462V13.6462Z" fill="white"/>
</svg>
